<mxfile host="65bd71144e">
    <diagram id="cA_NNs_CJCysyV5ECCQ1" name="Page-1">
        <mxGraphModel dx="-30" dy="1298" grid="1" gridSize="10" guides="1" tooltips="1" connect="1" arrows="1" fold="1" page="1" pageScale="1" pageWidth="827" pageHeight="1169" math="0" shadow="0">
            <root>
                <mxCell id="0"/>
                <mxCell id="1" parent="0"/>
                <mxCell id="160" style="edgeStyle=none;html=1;exitX=0.5;exitY=1;exitDx=0;exitDy=0;exitPerimeter=0;entryX=0.5;entryY=0;entryDx=0;entryDy=0;endArrow=none;endFill=0;strokeWidth=2;" parent="1" source="138" target="140" edge="1">
                    <mxGeometry relative="1" as="geometry"/>
                </mxCell>
                <mxCell id="138" value="&lt;div&gt;Начало&lt;/div&gt;" style="strokeWidth=2;html=1;shape=stencil(xVXBboMwDP0ajkxAtK49Tqw79rJJO7vUpVFDgpysdH+/0IBaoDCayyQO+Bne83NsJWCpPkCJQRJJKDBgb0GSfCIVXIJRZAObOTh4EbmwcuFq6ULQJWbGYScgDluBLqMNqSNWfGcaBi4PSNzUWbYOolf7Tf2wNFNSWhKupO5kbvKWDLi0/0ZnRxY9PTuZnyZ2UWkVCjRIHfRqbuOAIHn3VornKX14KHUdtbp/KX09rhT7Ka19uhf3xeKZHdx4GLsjt1zNPDAvuZb9cXdezRzIzXY3IsdSi4wtIEu3kB1zUt9yd7fIEurlHiTadKFOeK2+P99T/lsGweUNw8vycQagzL5QrwZqKFgTn0M4cx2SMlC3ocMvgHIMLU+4F5B3UrpCLG/g5uzvl7vwcNzr2TyKf7Tsc8aZUBonNsHigzm7oCPDydK9IpyY2j0Xwt1OYwsxILig7q68AL8=);whiteSpace=wrap;aspect=fixed;" parent="1" vertex="1">
                    <mxGeometry x="890" width="118.11" height="39.37" as="geometry"/>
                </mxCell>
                <mxCell id="139" value="&lt;div&gt;Конец&lt;/div&gt;" style="strokeWidth=2;html=1;shape=stencil(xVXBboMwDP0ajkxAtK49Tqw79rJJO7vUpVFDgpysdH+/0IBaoDCayyQO+Bne83NsJWCpPkCJQRJJKDBgb0GSfCIVXIJRZAObOTh4EbmwcuFq6ULQJWbGYScgDluBLqMNqSNWfGcaBi4PSNzUWbYOolf7Tf2wNFNSWhKupO5kbvKWDLi0/0ZnRxY9PTuZnyZ2UWkVCjRIHfRqbuOAIHn3VornKX14KHUdtbp/KX09rhT7Ka19uhf3xeKZHdx4GLsjt1zNPDAvuZb9cXdezRzIzXY3IsdSi4wtIEu3kB1zUt9yd7fIEurlHiTadKFOeK2+P99T/lsGweUNw8vycQagzL5QrwZqKFgTn0M4cx2SMlC3ocMvgHIMLU+4F5B3UrpCLG/g5uzvl7vwcNzr2TyKf7Tsc8aZUBonNsHigzm7oCPDydK9IpyY2j0Xwt1OYwsxILig7q68AL8=);whiteSpace=wrap;aspect=fixed;" parent="1" vertex="1">
                    <mxGeometry x="1218.8700000000001" y="950" width="118.11" height="39.37" as="geometry"/>
                </mxCell>
                <mxCell id="161" style="edgeStyle=none;html=1;exitX=0.5;exitY=1;exitDx=0;exitDy=0;entryX=0.5;entryY=0;entryDx=0;entryDy=0;endArrow=none;endFill=0;strokeWidth=2;" parent="1" source="140" target="141" edge="1">
                    <mxGeometry relative="1" as="geometry"/>
                </mxCell>
                <mxCell id="140" value="Создание типов особи и оценки" style="rounded=0;whiteSpace=wrap;html=1;aspect=fixed;strokeWidth=2;" parent="1" vertex="1">
                    <mxGeometry x="890" y="59.999999999999986" width="118.11" height="78.74" as="geometry"/>
                </mxCell>
                <mxCell id="162" style="edgeStyle=none;html=1;exitX=0.5;exitY=1;exitDx=0;exitDy=0;entryX=0.5;entryY=0;entryDx=0;entryDy=0;endArrow=none;endFill=0;strokeWidth=2;" parent="1" source="141" target="142" edge="1">
                    <mxGeometry relative="1" as="geometry"/>
                </mxCell>
                <mxCell id="141" value="Регистрауия генетических операторов" style="rounded=0;whiteSpace=wrap;html=1;aspect=fixed;strokeWidth=2;" parent="1" vertex="1">
                    <mxGeometry x="890" y="160" width="118.11" height="78.74" as="geometry"/>
                </mxCell>
                <mxCell id="163" style="edgeStyle=none;html=1;exitX=0.5;exitY=1;exitDx=0;exitDy=0;entryX=0.5;entryY=0;entryDx=0;entryDy=0;endArrow=none;endFill=0;strokeWidth=2;" parent="1" source="142" target="143" edge="1">
                    <mxGeometry relative="1" as="geometry"/>
                </mxCell>
                <mxCell id="142" value="Создание начальной популяции" style="rounded=0;whiteSpace=wrap;html=1;aspect=fixed;strokeWidth=2;" parent="1" vertex="1">
                    <mxGeometry x="890" y="260" width="118.11" height="78.74" as="geometry"/>
                </mxCell>
                <mxCell id="164" style="edgeStyle=none;html=1;exitX=0.5;exitY=1;exitDx=0;exitDy=0;endArrow=none;endFill=0;strokeWidth=2;entryX=0.5;entryY=0;entryDx=0;entryDy=0;" parent="1" source="184" target="178" edge="1">
                    <mxGeometry relative="1" as="geometry">
                        <mxPoint x="949.0550000000001" y="470" as="targetPoint"/>
                    </mxGeometry>
                </mxCell>
                <mxCell id="185" style="edgeStyle=none;html=1;exitX=0.5;exitY=1;exitDx=0;exitDy=0;endArrow=none;endFill=0;" edge="1" parent="1" source="143" target="184">
                    <mxGeometry relative="1" as="geometry"/>
                </mxCell>
                <mxCell id="143" value="Оценка пригодности начальной популяции" style="rounded=0;whiteSpace=wrap;html=1;aspect=fixed;strokeWidth=2;" parent="1" vertex="1">
                    <mxGeometry x="890" y="364" width="118.11" height="78.74" as="geometry"/>
                </mxCell>
                <mxCell id="157" style="edgeStyle=orthogonalEdgeStyle;html=1;exitX=1;exitY=0.5;exitDx=0;exitDy=0;entryX=0.5;entryY=0;entryDx=0;entryDy=0;rounded=0;curved=0;endArrow=none;endFill=0;strokeWidth=2;" parent="1" source="144" target="156" edge="1">
                    <mxGeometry relative="1" as="geometry">
                        <mxPoint x="1468.8700000000001" y="608.74" as="targetPoint"/>
                        <Array as="points">
                            <mxPoint x="1459" y="89"/>
                            <mxPoint x="1459" y="830"/>
                            <mxPoint x="1278" y="830"/>
                        </Array>
                    </mxGeometry>
                </mxCell>
                <mxCell id="166" style="edgeStyle=none;html=1;exitX=0.5;exitY=1;exitDx=0;exitDy=0;entryX=0.5;entryY=0;entryDx=0;entryDy=0;endArrow=none;endFill=0;strokeWidth=2;" parent="1" source="144" target="145" edge="1">
                    <mxGeometry relative="1" as="geometry"/>
                </mxCell>
                <mxCell id="144" value="Возраст&amp;nbsp;&lt;div&gt;популяции&amp;nbsp;&lt;/div&gt;&lt;div&gt;равен N?&lt;/div&gt;" style="rhombus;whiteSpace=wrap;html=1;aspect=fixed;strokeWidth=2;" parent="1" vertex="1">
                    <mxGeometry x="1218.8700000000001" y="49.999999999999986" width="118.11" height="78.74" as="geometry"/>
                </mxCell>
                <mxCell id="167" style="edgeStyle=none;html=1;exitX=0.5;exitY=1;exitDx=0;exitDy=0;entryX=0.5;entryY=0;entryDx=0;entryDy=0;endArrow=none;endFill=0;strokeWidth=2;" parent="1" source="145" target="147" edge="1">
                    <mxGeometry relative="1" as="geometry"/>
                </mxCell>
                <mxCell id="145" value="Отбор лучших особей для следующего поколения" style="rounded=0;whiteSpace=wrap;html=1;aspect=fixed;strokeWidth=2;" parent="1" vertex="1">
                    <mxGeometry x="1218.8700000000001" y="158.74" width="118.11" height="78.74" as="geometry"/>
                </mxCell>
                <mxCell id="168" style="edgeStyle=none;html=1;exitX=0.5;exitY=1;exitDx=0;exitDy=0;entryX=0.5;entryY=0;entryDx=0;entryDy=0;endArrow=none;endFill=0;strokeWidth=2;" parent="1" source="147" target="149" edge="1">
                    <mxGeometry relative="1" as="geometry"/>
                </mxCell>
                <mxCell id="147" value="Скрещивание пар особей с вероятностью cxpb&amp;nbsp;" style="rounded=0;whiteSpace=wrap;html=1;aspect=fixed;strokeWidth=2;" parent="1" vertex="1">
                    <mxGeometry x="1218.8700000000001" y="250" width="118.11" height="78.74" as="geometry"/>
                </mxCell>
                <mxCell id="169" style="edgeStyle=none;html=1;exitX=0.5;exitY=1;exitDx=0;exitDy=0;entryX=0.5;entryY=0;entryDx=0;entryDy=0;endArrow=none;endFill=0;strokeWidth=2;" parent="1" source="149" target="150" edge="1">
                    <mxGeometry relative="1" as="geometry"/>
                </mxCell>
                <mxCell id="149" value="Мутация особей с вероятностью mutpb" style="rounded=0;whiteSpace=wrap;html=1;aspect=fixed;strokeWidth=2;" parent="1" vertex="1">
                    <mxGeometry x="1218.8700000000001" y="340" width="118.11" height="78.74" as="geometry"/>
                </mxCell>
                <mxCell id="170" style="edgeStyle=none;html=1;exitX=0.5;exitY=1;exitDx=0;exitDy=0;entryX=0.5;entryY=0;entryDx=0;entryDy=0;endArrow=none;endFill=0;strokeWidth=2;" parent="1" source="150" target="151" edge="1">
                    <mxGeometry relative="1" as="geometry"/>
                </mxCell>
                <mxCell id="150" value="Оценка пригодности новых особей" style="rounded=0;whiteSpace=wrap;html=1;aspect=fixed;strokeWidth=2;" parent="1" vertex="1">
                    <mxGeometry x="1218.8700000000001" y="431" width="118.11" height="78.74" as="geometry"/>
                </mxCell>
                <mxCell id="171" style="edgeStyle=none;html=1;exitX=0.5;exitY=1;exitDx=0;exitDy=0;endArrow=none;endFill=0;strokeWidth=2;" parent="1" source="151" target="154" edge="1">
                    <mxGeometry relative="1" as="geometry"/>
                </mxCell>
                <mxCell id="151" value="Замена старой популяции новой" style="rounded=0;whiteSpace=wrap;html=1;aspect=fixed;strokeWidth=2;" parent="1" vertex="1">
                    <mxGeometry x="1218.8700000000001" y="520" width="118.11" height="78.74" as="geometry"/>
                </mxCell>
                <mxCell id="165" style="edgeStyle=none;html=1;entryX=0.5;entryY=0;entryDx=0;entryDy=0;endArrow=none;endFill=0;strokeWidth=2;" parent="1" target="144" edge="1">
                    <mxGeometry relative="1" as="geometry">
                        <mxPoint x="1278" y="30" as="sourcePoint"/>
                    </mxGeometry>
                </mxCell>
                <mxCell id="172" style="edgeStyle=none;html=1;exitX=0.5;exitY=1;exitDx=0;exitDy=0;entryX=0.5;entryY=0;entryDx=0;entryDy=0;endArrow=none;endFill=0;strokeWidth=2;" parent="1" source="154" target="155" edge="1">
                    <mxGeometry relative="1" as="geometry"/>
                </mxCell>
                <mxCell id="154" value="Обновление статистики и сохранение лушчего решения" style="rounded=0;whiteSpace=wrap;html=1;aspect=fixed;strokeWidth=2;" parent="1" vertex="1">
                    <mxGeometry x="1218.8700000000001" y="609.37" width="118.11" height="78.74" as="geometry"/>
                </mxCell>
                <mxCell id="158" style="edgeStyle=none;html=1;exitX=0.5;exitY=1;exitDx=0;exitDy=0;entryX=0.5;entryY=0;entryDx=0;entryDy=0;endArrow=none;endFill=0;strokeWidth=2;" parent="1" source="155" target="156" edge="1">
                    <mxGeometry relative="1" as="geometry">
                        <mxPoint x="1298.8700000000001" y="1069.3114285714287" as="targetPoint"/>
                    </mxGeometry>
                </mxCell>
                <mxCell id="159" style="edgeStyle=orthogonalEdgeStyle;html=1;exitX=0;exitY=0.5;exitDx=0;exitDy=0;entryX=0;entryY=0.5;entryDx=0;entryDy=0;rounded=0;strokeWidth=2;endArrow=blockThin;endFill=1;" parent="1" source="155" target="144" edge="1">
                    <mxGeometry relative="1" as="geometry">
                        <mxPoint x="1078.8700000000001" y="848.74" as="targetPoint"/>
                        <Array as="points">
                            <mxPoint x="1099" y="759"/>
                            <mxPoint x="1099" y="90"/>
                            <mxPoint x="1219" y="90"/>
                        </Array>
                    </mxGeometry>
                </mxCell>
                <mxCell id="155" value="Остановить раньше?" style="rhombus;whiteSpace=wrap;html=1;aspect=fixed;strokeWidth=2;" parent="1" vertex="1">
                    <mxGeometry x="1218.8700000000001" y="720" width="118.11" height="78.74" as="geometry"/>
                </mxCell>
                <mxCell id="156" value="Извлечение лучшего решения" style="rounded=0;whiteSpace=wrap;html=1;aspect=fixed;strokeWidth=2;" parent="1" vertex="1">
                    <mxGeometry x="1218.8700000000001" y="860" width="118.11" height="78.74" as="geometry"/>
                </mxCell>
                <mxCell id="173" style="edgeStyle=none;html=1;exitX=0.5;exitY=1;exitDx=0;exitDy=0;entryX=0.5;entryY=0;entryDx=0;entryDy=0;entryPerimeter=0;endArrow=none;endFill=0;strokeWidth=2;" parent="1" source="156" target="139" edge="1">
                    <mxGeometry relative="1" as="geometry"/>
                </mxCell>
                <mxCell id="174" value="Нет" style="text;html=1;align=center;verticalAlign=middle;resizable=0;points=[];autosize=1;strokeColor=none;fillColor=none;" vertex="1" parent="1">
                    <mxGeometry x="1178.8700000000001" y="737.74" width="40" height="30" as="geometry"/>
                </mxCell>
                <mxCell id="175" value="Да" style="text;html=1;align=center;verticalAlign=middle;resizable=0;points=[];autosize=1;strokeColor=none;fillColor=none;" vertex="1" parent="1">
                    <mxGeometry x="1270.8700000000001" y="798.48" width="40" height="30" as="geometry"/>
                </mxCell>
                <mxCell id="176" value="Да" style="text;html=1;align=center;verticalAlign=middle;resizable=0;points=[];autosize=1;strokeColor=none;fillColor=none;" vertex="1" parent="1">
                    <mxGeometry x="1336.98" y="66" width="40" height="30" as="geometry"/>
                </mxCell>
                <mxCell id="177" value="Нет" style="text;html=1;align=center;verticalAlign=middle;resizable=0;points=[];autosize=1;strokeColor=none;fillColor=none;" vertex="1" parent="1">
                    <mxGeometry x="1271.0000000000002" y="128.74" width="40" height="30" as="geometry"/>
                </mxCell>
                <mxCell id="178" value="" style="ellipse;whiteSpace=wrap;html=1;aspect=fixed;" vertex="1" parent="1">
                    <mxGeometry x="929.37" y="580" width="39.37" height="39.37" as="geometry"/>
                </mxCell>
                <mxCell id="179" value="" style="ellipse;whiteSpace=wrap;html=1;aspect=fixed;" vertex="1" parent="1">
                    <mxGeometry x="1258.24" width="39.37" height="39.37" as="geometry"/>
                </mxCell>
                <mxCell id="184" value="Инициализация статистики&amp;nbsp; и сохранения лучшего решания&amp;nbsp;" style="rounded=0;whiteSpace=wrap;html=1;aspect=fixed;strokeWidth=2;" vertex="1" parent="1">
                    <mxGeometry x="890.0000000000001" y="471.26" width="118.11" height="78.74" as="geometry"/>
                </mxCell>
            </root>
        </mxGraphModel>
    </diagram>
</mxfile>